<?xml version="1.0" encoding="UTF-8"?>
<svg width="746px" height="420px" viewBox="0 0 746 420" version="1.1" xmlns="http://www.w3.org/2000/svg" xmlns:xlink="http://www.w3.org/1999/xlink">
    <title>Group 6</title>
    <g id="Page-1" stroke="none" stroke-width="1" fill="none" fill-rule="evenodd">
        <g id="Group-6">
            <path d="M431.544406,54.5338339 C559.307029,84.889032 649.791201,189.117836 667,211.841238 C648.592952,238.982255 573.311858,342.190758 431.544406,367.65246 C370.80706,378.561003 252.625591,368.941331 77,338.793445 L77,84.889032 C251.466908,49.9463186 369.648377,39.8279193 431.544406,54.5338339 Z M426.296424,67.9691816 C369.855638,54.5341485 262.090164,63.7781182 103,95.7010909 L103,95.7010909 L103,327.663147 C263.146725,355.20566 370.9122,363.994003 426.296424,354.028174 C555.569118,330.766865 624.215268,236.477616 641,211.682119 C625.307909,190.922467 542.798613,95.7010909 426.296424,67.9691816 Z" id="Combined-Shape" fill="#F5C073"></path>
            <rect id="Rectangle" stroke="#979797" fill="#F8EDCE" x="147" y="156" width="62" height="62"></rect>
            <rect id="Rectangle" stroke="#979797" fill="#F8EDCE" x="209" y="156" width="62" height="62"></rect>
            <rect id="Rectangle" stroke="#979797" fill="#F8EDCE" x="209" y="218" width="62" height="62"></rect>
            <rect id="Rectangle" stroke="#979797" fill="#F8EDCE" x="271" y="218" width="62" height="62"></rect>
            <rect id="Rectangle" stroke="#979797" fill="#F8EDCE" x="271" y="280" width="62" height="62"></rect>
            <rect id="Rectangle" stroke="#979797" fill="#F8EDCE" x="333" y="280" width="62" height="62"></rect>
            <rect id="Rectangle" stroke="#979797" fill="#F8EDCE" x="395" y="280" width="62" height="62"></rect>
            <rect id="Rectangle" stroke="#979797" fill="#F8EDCE" x="209" y="94" width="62" height="62"></rect>
            <rect id="Rectangle" stroke="#979797" fill="#F8EDCE" x="271" y="94" width="62" height="62"></rect>
            <rect id="Rectangle" stroke="#979797" fill="#F8EDCE" x="333" y="94" width="62" height="62"></rect>
            <rect id="Rectangle" stroke="#979797" fill="#F8EDCE" x="333" y="156" width="62" height="62"></rect>
            <rect id="Rectangle" stroke="#979797" fill="#F8EDCE" x="395" y="94" width="62" height="62"></rect>
            <g id="Group-3" transform="translate(107.000000, 159.000000)" fill="#8B572A" stroke="#F5C073">
                <rect id="Rectangle" x="0" y="0" width="29" height="7"></rect>
                <rect id="Rectangle" x="5" y="7" width="29" height="7"></rect>
                <rect id="Rectangle" x="12" y="14" width="29" height="7"></rect>
                <rect id="Rectangle" x="20" y="21" width="29" height="7"></rect>
            </g>
            <g id="Group-4" transform="translate(348.000000, 214.000000)" stroke="#979797">
                <path d="M36,4 C36,10.6937736 32.3461954,16.5341554 26.9242207,19.6355109 L0.001,4.09 L0,4 L36,4 L36,4 Z" id="Combined-Shape" fill="#FFFFFF"></path>
                <rect id="Rectangle" fill="#8B572A" x="0" y="0" width="36" height="4"></rect>
            </g>
            <g id="Group-4" transform="translate(265.000000, 313.000000) rotate(90.000000) translate(-265.000000, -313.000000) translate(247.000000, 303.000000)" stroke="#979797">
                <path d="M36,4 C36,10.6937736 32.3461954,16.5341554 26.9242207,19.6355109 L0.001,4.09 L0,4 L36,4 L36,4 Z" id="Combined-Shape" fill="#FFFFFF"></path>
                <rect id="Rectangle" fill="#8B572A" x="0" y="0" width="36" height="4"></rect>
            </g>
            <g id="Group-4" transform="translate(302.000000, 88.000000) scale(1, -1) translate(-302.000000, -88.000000) translate(284.000000, 78.000000)" stroke="#979797">
                <path d="M36,4 C36,10.6937736 32.3461954,16.5341554 26.9242207,19.6355109 L0.001,4.09 L0,4 L36,4 L36,4 Z" id="Combined-Shape" fill="#FFFFFF"></path>
                <rect id="Rectangle" fill="#8B572A" x="0" y="0" width="36" height="4"></rect>
            </g>
            <g id="Group-4" transform="translate(463.000000, 313.000000) scale(-1, 1) rotate(90.000000) translate(-463.000000, -313.000000) translate(445.000000, 303.000000)" stroke="#979797">
                <path d="M36,4 C36,10.6937736 32.3461954,16.5341554 26.9242207,19.6355109 L0.001,4.09 L0,4 L36,4 L36,4 Z" id="Combined-Shape" fill="#FFFFFF"></path>
                <rect id="Rectangle" fill="#8B572A" x="0" y="0" width="36" height="4"></rect>
            </g>
            <text id="Armory" font-family="Apple-Chancery, Apple Chancery" font-size="15" font-weight="normal" fill="#AF234C">
                <tspan x="341.174561" y="249">Armory</tspan>
            </text>
            <text id="Capitain" font-family="Apple-Chancery, Apple Chancery" font-size="15" font-weight="normal" fill="#AF234C">
                <tspan x="210.129395" y="318">Capitain</tspan>
            </text>
            <text id="Treasury" font-family="Apple-Chancery, Apple Chancery" font-size="15" font-weight="normal" fill="#AF234C">
                <tspan x="459.444824" y="318">Treasury</tspan>
            </text>
            <text id="Sea" font-family="Apple-Chancery, Apple Chancery" font-size="15" font-weight="normal" fill="#AF234C">
                <tspan x="291.423828" y="77">Sea</tspan>
            </text>
            <text id="North" font-family="Apple-Chancery, Apple Chancery" font-size="30" font-weight="normal" fill="#4A4A4A">
                <tspan x="303.414062" y="34">North</tspan>
            </text>
            <text id="West" font-family="Apple-Chancery, Apple Chancery" font-size="30" font-weight="normal" fill="#4A4A4A">
                <tspan x="0.364257812" y="221">West</tspan>
            </text>
            <text id="East" font-family="Apple-Chancery, Apple Chancery" font-size="30" font-weight="normal" fill="#4A4A4A">
                <tspan x="685.195801" y="221">East</tspan>
            </text>
            <text id="South" font-family="Apple-Chancery, Apple Chancery" font-size="30" font-weight="normal" fill="#4A4A4A">
                <tspan x="312.424316" y="406">South</tspan>
            </text>
            <text id="0,0" font-family="Apple-Chancery, Apple Chancery" font-size="15" font-weight="normal" fill="#AF234C">
                <tspan x="168.716553" y="192">0,0</tspan>
            </text>
            <text id="0,1" font-family="Apple-Chancery, Apple Chancery" font-size="15" font-weight="normal" fill="#AF234C">
                <tspan x="229.35376" y="192">0,1</tspan>
            </text>
            <text id="-1,1" font-family="Apple-Chancery, Apple Chancery" font-size="15" font-weight="normal" fill="#AF234C">
                <tspan x="227.277344" y="252">-1,1</tspan>
            </text>
            <text id="-1,2" font-family="Apple-Chancery, Apple Chancery" font-size="15" font-weight="normal" fill="#AF234C">
                <tspan x="288.317871" y="252">-1,2</tspan>
            </text>
            <text id="-2,2" font-family="Apple-Chancery, Apple Chancery" font-size="15" font-weight="normal" fill="#AF234C">
                <tspan x="287.358398" y="313">-2,2</tspan>
            </text>
            <text id="-2,3" font-family="Apple-Chancery, Apple Chancery" font-size="15" font-weight="normal" fill="#AF234C">
                <tspan x="352.09082" y="313">-2,3</tspan>
            </text>
            <text id="-2,4" font-family="Apple-Chancery, Apple Chancery" font-size="15" font-weight="normal" fill="#AF234C">
                <tspan x="411.911621" y="313">-2,4</tspan>
            </text>
            <text id="1,1" font-family="Apple-Chancery, Apple Chancery" font-size="15" font-weight="normal" fill="#AF234C">
                <tspan x="229.990967" y="125">1,1</tspan>
            </text>
            <text id="1,2" font-family="Apple-Chancery, Apple Chancery" font-size="15" font-weight="normal" fill="#AF234C">
                <tspan x="291.031494" y="125">1,2</tspan>
            </text>
            <text id="1,3" font-family="Apple-Chancery, Apple Chancery" font-size="15" font-weight="normal" fill="#AF234C">
                <tspan x="354.763916" y="125">1,3</tspan>
            </text>
            <text id="1,4" font-family="Apple-Chancery, Apple Chancery" font-size="15" font-weight="normal" fill="#AF234C">
                <tspan x="415.584717" y="125">1,4</tspan>
            </text>
            <text id="0,3" font-family="Apple-Chancery, Apple Chancery" font-size="15" font-weight="normal" fill="#AF234C">
                <tspan x="355.126709" y="187">0,3</tspan>
            </text>
        </g>
    </g>
</svg>